<svg viewBox="0 0 87 52" xmlns="http://www.w3.org/2000/svg"><path d="M13.81 35.34c0 .96.11 1.73.33 2.32.22.58.59 1.15 1.1 1.71.25.29.28.47.09.66-.19.25-.6.62-1.16 1.1-.56.49-1.03.73-1.43.73-.36 0-.67-.16-.97-.47-1.03-1.05-1.82-2.27-2.37-3.65-.56-1.38-.84-2.86-.84-4.45 0-1.58.28-3.07.84-4.45.55-1.38 1.34-2.6 2.37-3.65.3-.3.61-.47.97-.47.4 0 .87.24 1.43.73.56.48.97.85 1.16 1.1.19.19.16.37-.09.66-.51.56-.88 1.13-1.1 1.71-.22.59-.33 1.36-.33 2.32v5.74zM29.42 29.99c0 .74-.24 1.33-.73 1.77-.49.43-1.12.65-1.88.65-.76 0-1.39-.22-1.88-.65-.49-.44-.73-1.03-.73-1.77s.24-1.33.73-1.77c.49-.43 1.12-.65 1.88-.65.76 0 1.39.22 1.88.65.49.44.73 1.03.73 1.77zm4.49 0c0 1.53-.42 2.9-1.26 4.1-.84 1.21-2.02 2.14-3.54 2.81-1.51.67-3.2 1.01-5.06 1.01-1.87 0-3.56-.34-5.07-1.01-1.51-.67-2.69-1.6-3.53-2.81-.84-1.2-1.26-2.57-1.26-4.1 0-1.54.42-2.91 1.26-4.12.84-1.21 2.02-2.14 3.53-2.81C18.86 21.38 20.55 21 22.42 21c1.86 0 3.55.34 5.06 1.01 1.52.67 2.7 1.6 3.54 2.81.84 1.21 1.26 2.58 1.26 4.12z" fill="#FF9900"/><path d="M59.41 37.07c-.97 1.04-2.28 1.56-3.93 1.56-1.97 0-3.66-.68-5.08-2.03-1.42-1.36-2.13-3.04-2.13-5.06 0-1.96.69-3.61 2.08-4.94 1.39-1.33 3.14-1.99 5.24-1.99.71 0 1.45.1 2.22.3.77.2 1.56.52 2.38.98.39.22.65.45.78.7.13.25.2.57.2.98v10.25c0 .46.08.78.24.98.16.2.4.33.71.4.31.07.74.15 1.29.25.27.05.45.15.54.3.09.15.07.38-.07.7-.33.7-.8 1.22-1.4 1.56-.61.34-1.38.51-2.3.51-.99 0-1.8-.23-2.44-.7-.63-.47-1.05-1.15-1.25-2.04l-.5-1.53zm-1.34-6.73c0-.62-.17-1.09-.52-1.41-.35-.32-.83-.47-1.44-.47-.7 0-1.28.23-1.74.69-.46.46-.69 1.11-.69 1.95 0 .78.22 1.4.65 1.86.43.46 1.02.69 1.76.69.58 0 1.03-.16 1.36-.47.33-.32.62-.8.9-1.46v-2.38z" fill="#FF9900"/><path d="M75.08 21.68c2.1 0 3.84.68 5.24 2.03 1.39 1.36 2.08 3.01 2.08 4.95 0 1.99-.7 3.66-2.11 5.01-1.4 1.35-3.16 2.02-5.27 2.02-.76 0-1.5-.1-2.24-.3-.74-.2-1.5-.51-2.27-.95-.39-.22-.67-.46-.82-.73-.15-.27-.22-.6-.22-1v-10.2c0-.46-.08-.79-.24-1-.16-.21-.4-.34-.71-.41-.31-.08-.74-.16-1.29-.24-.27-.04-.45-.14-.54-.29-.09-.15-.07-.38.07-.7.33-.71.8-1.23 1.4-1.57.61-.33 1.38-.5 2.3-.5z" fill="#FF9900"/></svg>